HIERARCHY
ROOT joint_Root
{
	OFFSET 0.0 0.0 0.0
	CHANNELS 6 Xposition Yposition Zposition Zrotation Xrotation Yrotation 
	JOINT Hips
	{
		OFFSET 4.5925 91.4895 -427.239
		CHANNELS 6 Xposition Yposition Zposition Zrotation Xrotation Yrotation 
		JOINT Spine
		{
			OFFSET 15.7357 0.0 0.0
			CHANNELS 6 Xposition Yposition Zposition Zrotation Xrotation Yrotation 
			JOINT Chest
			{
				OFFSET 8.98455 -0.406207 0.0
				CHANNELS 6 Xposition Yposition Zposition Zrotation Xrotation Yrotation 
				JOINT Neck
				{
					OFFSET 16.3773 0.0 0.0
					CHANNELS 6 Xposition Yposition Zposition Zrotation Xrotation Yrotation 
					JOINT Head
					{
						OFFSET 6.45672 0.0 0.0
						CHANNELS 6 Xposition Yposition Zposition Zrotation Xrotation Yrotation 
						End Site
						{
							OFFSET 0.0 0.0 0.0
						}
					}
				}
				JOINT Shoulder_L
				{
					OFFSET 12.9942 -0.242716 4.98039
					CHANNELS 6 Xposition Yposition Zposition Zrotation Xrotation Yrotation 
					JOINT UpperArm_L
					{
						OFFSET 5.34809 0.0 0.0
						CHANNELS 6 Xposition Yposition Zposition Zrotation Xrotation Yrotation 
						JOINT LowerArm_L
						{
							OFFSET 24.3286 1.87007e-05 0.0
							CHANNELS 6 Xposition Yposition Zposition Zrotation Xrotation Yrotation 
							JOINT Hand_L
							{
								OFFSET 22.2916 0.0 0.0
								CHANNELS 6 Xposition Yposition Zposition Zrotation Xrotation Yrotation 
								End Site
								{
									OFFSET 0.0 0.0 0.0
								}
							}
						}
					}
				}
				JOINT Shoulder_R
				{
					OFFSET 12.9945 -0.242716 -4.98039
					CHANNELS 6 Xposition Yposition Zposition Zrotation Xrotation Yrotation 
					JOINT UpperArm_R
					{
						OFFSET -5.34813 0.0 0.0
						CHANNELS 6 Xposition Yposition Zposition Zrotation Xrotation Yrotation 
						JOINT LowerArm_R
						{
							OFFSET -24.3289 0.000322201 0.0
							CHANNELS 6 Xposition Yposition Zposition Zrotation Xrotation Yrotation 
							JOINT Hand_R
							{
								OFFSET -22.2915 -0.000108084 0.0
								CHANNELS 6 Xposition Yposition Zposition Zrotation Xrotation Yrotation 
								End Site
								{
									OFFSET 0.0 0.0 0.0
								}
							}
						}
					}
				}
			}
		}
		JOINT UpperLeg_L
		{
			OFFSET -2.19248 -6.46944 0.0
			CHANNELS 6 Xposition Yposition Zposition Zrotation Xrotation Yrotation 
			JOINT LowerLeg_L
			{
				OFFSET 39.0811 0.0 -1.23785e-05
				CHANNELS 6 Xposition Yposition Zposition Zrotation Xrotation Yrotation 
				JOINT Foot_L
				{
					OFFSET 40.9854 0.0 -1.26872e-05
					CHANNELS 6 Xposition Yposition Zposition Zrotation Xrotation Yrotation 
					JOINT Toes_L
					{
						OFFSET 11.7543 0.0 0.0
						CHANNELS 6 Xposition Yposition Zposition Zrotation Xrotation Yrotation 
						End Site
						{
							OFFSET 0.0 0.0 0.0
						}
					}
				}
			}
		}
		JOINT UpperLeg_R
		{
			OFFSET -2.19251 6.46944 0.0
			CHANNELS 6 Xposition Yposition Zposition Zrotation Xrotation Yrotation 
			JOINT LowerLeg_R
			{
				OFFSET -39.0811 -0.00228153 -0.0401928
				CHANNELS 6 Xposition Yposition Zposition Zrotation Xrotation Yrotation 
				JOINT Foot_R
				{
					OFFSET -40.9854 0.0 0.0
					CHANNELS 6 Xposition Yposition Zposition Zrotation Xrotation Yrotation 
					JOINT Toes_R
					{
						OFFSET -11.7543 0.0 0.0
						CHANNELS 6 Xposition Yposition Zposition Zrotation Xrotation Yrotation 
						End Site
						{
							OFFSET 0.0 0.0 0.0
						}
					}
				}
			}
		}
	}
}
MOTION
Frames:	9
Frame Time:	0.0333333
0.000000 0.000000 0.000000 0.000000 0.000000 -0.000000 -0.899590 89.663000 -5.077190 89.108600 -2.834920 10.388400 15.735700 0.000005 -0.000001 88.504800 76.804900 -88.513900 8.984550 -0.406207 -0.000000 18.616100 -0.675983 0.092559 16.377300 -0.000001 -0.000001 2.633730 -2.874530 2.119560 6.456720 -0.000001 -0.000000 -5.843110 -1.740380 2.157340 12.994200 -0.242716 4.980390 -90.956300 4.649170 -78.363100 5.348090 -0.000007 -0.000001 -52.962700 37.998100 -33.827300 24.328600 0.000019 0.000005 7.267700 16.472400 -24.215900 22.291600 -0.000001 0.000005 10.375200 5.244750 1.570830 12.994500 -0.242716 -4.980390 89.420800 8.967450 -86.289100 -5.348130 -0.000001 -0.000004 -55.250100 34.079200 -28.220400 -24.328900 0.000322 -0.000009 1.581510 4.063490 -21.300100 -22.291500 -0.000108 -0.000004 16.065400 5.409200 -3.238690 -2.192480 -6.469440 -0.000000 -174.331000 -11.885800 -6.879260 39.081100 -0.000007 -0.000012 -0.211036 0.272189 37.788000 40.985400 -0.000006 -0.000013 -0.135086 4.035480 -70.229300 11.754300 -0.000000 0.000003 -0.000130 -0.001290 -16.626800 -2.192510 6.469440 -0.000001 176.828000 17.151600 173.971000 -39.081100 -0.002282 -0.040193 -0.079487 0.108506 37.337500 -40.985400 0.000008 0.000006 6.140700 9.691920 -71.486200 -11.754300 -0.000006 -0.000006 -0.002240 -0.031685 -17.861500
0.000000 0.000000 0.000000 0.000000 0.000000 -0.000000 -0.930208 89.658600 -5.097840 89.096200 -2.759620 10.418200 15.735700 0.000005 -0.000001 88.537300 76.741600 -88.517900 8.984550 -0.406207 -0.000000 18.743200 -0.661608 0.148131 16.377300 -0.000001 -0.000001 2.629330 -2.914760 2.162060 6.456720 -0.000001 -0.000000 -5.934530 -1.791530 2.182640 12.994200 -0.242716 4.980390 -90.972700 4.701390 -78.296600 5.348090 -0.000007 -0.000001 -53.329200 36.847100 -33.219500 24.328600 0.000019 0.000005 7.922260 16.528700 -26.064600 22.291600 -0.000001 0.000005 10.662900 5.241990 1.643490 12.994500 -0.242716 -4.980390 89.407900 9.025040 -86.231000 -5.348130 -0.000001 -0.000004 -55.057400 33.983400 -28.221000 -24.328900 0.000322 -0.000009 1.586230 4.065320 -21.349300 -22.291500 -0.000108 -0.000004 16.062700 5.408240 -3.207270 -2.192480 -6.469440 -0.000000 -174.302000 -11.818500 -6.891640 39.081100 -0.000007 -0.000012 -0.214248 0.276101 37.811100 40.985400 -0.000006 -0.000013 -0.160015 4.031350 -70.210600 11.754300 -0.000000 0.000003 -0.000128 -0.001273 -16.626100 -2.192510 6.469440 -0.000001 176.835000 17.218800 173.998000 -39.081100 -0.002282 -0.040193 -0.082553 0.112509 37.341700 -40.985400 0.000008 0.000006 6.083920 9.707470 -71.472100 -11.754300 -0.000006 -0.000006 -0.002220 -0.031443 -17.851700
0.000000 0.000000 0.000000 0.000000 0.000000 -0.000000 -0.960534 89.660900 -5.107540 89.107700 -2.713630 10.449000 15.735700 0.000005 -0.000001 88.621900 76.684400 -88.583800 8.984550 -0.406207 -0.000000 18.858400 -0.623971 0.180013 16.377300 -0.000001 -0.000001 2.625790 -2.959750 2.202430 6.456720 -0.000001 -0.000000 -6.019150 -1.877880 2.233120 12.994200 -0.242716 4.980390 -90.991300 4.755180 -78.209800 5.348090 -0.000007 -0.000001 -53.401500 35.706300 -32.797000 24.328600 0.000019 0.000005 8.539820 16.261900 -28.201500 22.291600 -0.000001 0.000005 11.037000 5.245730 1.545430 12.994500 -0.242716 -4.980390 89.392800 9.077120 -86.156900 -5.348130 -0.000001 -0.000004 -54.885100 33.911400 -28.217500 -24.328900 0.000322 -0.000009 1.591830 4.077510 -21.359500 -22.291500 -0.000108 -0.000004 16.118000 5.407810 -3.193030 -2.192480 -6.469440 -0.000000 -174.284000 -11.782800 -6.857890 39.081100 -0.000007 -0.000012 -0.215990 0.278575 37.788300 40.985400 -0.000006 -0.000013 -0.177924 4.067020 -70.189300 11.754300 -0.000000 0.000003 -0.000123 -0.001230 -16.624500 -2.192510 6.469440 -0.000001 176.838000 17.241700 174.032000 -39.081100 -0.002282 -0.040193 -0.080271 0.109532 37.338000 -40.985400 0.000008 0.000006 6.114540 9.682630 -71.477700 -11.754300 -0.000006 -0.000006 -0.002271 -0.032064 -17.876900
0.000000 0.000000 0.000000 0.000000 0.000000 -0.000000 -0.984142 89.655400 -5.124570 89.123100 -2.665520 10.461800 15.735700 0.000005 -0.000001 88.658900 76.636500 -88.604200 8.984550 -0.406207 -0.000000 18.954700 -0.607539 0.211165 16.377300 -0.000001 -0.000001 2.631520 -2.997070 2.253390 6.456720 -0.000001 -0.000000 -6.127240 -1.910060 2.213880 12.994200 -0.242716 4.980390 -91.009900 4.792250 -78.085200 5.348090 -0.000007 -0.000001 -53.336000 34.448100 -32.562600 24.328600 0.000019 0.000005 9.313600 16.197000 -30.452200 22.291600 -0.000001 0.000005 11.470900 5.245460 1.552240 12.994500 -0.242716 -4.980390 89.393200 9.076240 -86.158800 -5.348130 -0.000001 -0.000004 -54.825400 33.799900 -28.157000 -24.328900 0.000322 -0.000009 1.618810 4.147480 -21.356100 -22.291500 -0.000108 -0.000004 16.145800 5.408780 -3.224990 -2.192480 -6.469440 -0.000000 -174.293000 -11.761200 -6.882240 39.081100 -0.000007 -0.000012 -0.214305 0.276224 37.806200 40.985400 -0.000006 -0.000013 -0.179208 4.093850 -70.172200 11.754300 -0.000000 0.000003 -0.000123 -0.001227 -16.624400 -2.192510 6.469440 -0.000001 176.814000 17.304600 174.024000 -39.081100 -0.002282 -0.040193 -0.087942 0.119485 37.361700 -40.985400 0.000008 0.000006 6.039120 9.690350 -71.461700 -11.754300 -0.000006 -0.000006 -0.002113 -0.030122 -17.798000
0.000000 0.000000 0.000000 0.000000 0.000000 -0.000000 -1.008190 89.656800 -5.137340 89.138100 -2.597530 10.513600 15.735700 0.000005 -0.000001 88.759600 76.589400 -88.686800 8.984550 -0.406207 -0.000000 19.049900 -0.561619 0.240213 16.377300 -0.000001 -0.000001 2.669980 -3.036780 2.284350 6.456720 -0.000001 -0.000000 -6.252070 -1.978330 2.218620 12.994200 -0.242716 4.980390 -91.020000 4.809780 -78.012200 5.348090 -0.000007 -0.000001 -53.211300 33.095700 -32.446800 24.328600 0.000019 0.000005 10.203600 16.227300 -32.785300 22.291600 -0.000001 0.000005 12.111200 5.237580 1.758210 12.994500 -0.242716 -4.980390 89.382700 9.111160 -86.107400 -5.348130 -0.000001 -0.000004 -54.760400 33.692700 -28.032300 -24.328900 0.000322 -0.000009 1.600770 4.075450 -21.478600 -22.291500 -0.000108 -0.000004 16.060900 5.406100 -3.136790 -2.192480 -6.469440 -0.000000 -174.292000 -11.720700 -6.833940 39.081100 -0.000007 -0.000012 -0.213298 0.275093 37.789200 40.985400 -0.000006 -0.000013 -0.190385 4.104940 -70.153100 11.754300 -0.000000 0.000003 -0.000119 -0.001195 -16.623200 -2.192510 6.469440 -0.000001 176.795000 17.358700 174.083000 -39.081100 -0.002282 -0.040193 -0.086326 0.117374 37.360600 -40.985400 0.000008 0.000006 6.047300 9.662520 -71.465800 -11.754300 -0.000006 -0.000006 -0.002256 -0.031876 -17.869300
0.000000 0.000000 0.000000 0.000000 0.000000 -0.000000 -1.021170 89.647700 -5.149940 89.155400 -2.540440 10.567900 15.735700 0.000005 -0.000001 88.810900 76.531500 -88.726300 8.984550 -0.406207 -0.000000 19.166200 -0.539056 0.260772 16.377300 -0.000001 -0.000001 2.627400 -3.059030 2.347090 6.456720 -0.000001 -0.000000 -6.332900 -1.969230 2.216790 12.994200 -0.242716 4.980390 -91.029400 4.805620 -77.894400 5.348090 -0.000007 -0.000001 -52.922600 31.696900 -32.654300 24.328600 0.000019 0.000005 11.130300 16.332700 -34.976600 22.291600 -0.000001 0.000005 12.552700 5.234750 1.832320 12.994500 -0.242716 -4.980390 89.380100 9.134300 -86.101200 -5.348130 -0.000001 -0.000004 -54.634400 33.652800 -28.049400 -24.328900 0.000322 -0.000009 1.602050 4.085840 -21.444500 -22.291500 -0.000108 -0.000004 16.038200 5.408510 -3.215970 -2.192480 -6.469440 -0.000000 -174.297000 -11.688600 -6.806660 39.081100 -0.000007 -0.000012 -0.213663 0.275274 37.818400 40.985400 -0.000006 -0.000013 -0.182003 4.149560 -70.158500 11.754300 -0.000000 0.000003 -0.000116 -0.001168 -16.622200 -2.192510 6.469440 -0.000001 176.757000 17.378200 174.118000 -39.081100 -0.002282 -0.040193 -0.091054 0.123380 37.402300 -40.985400 0.000008 0.000006 6.000770 9.643420 -71.475100 -11.754300 -0.000006 -0.000006 -0.002157 -0.030660 -17.819800
0.000000 0.000000 0.000000 0.000000 0.000000 -0.000000 -1.035660 89.646900 -5.182880 89.158500 -2.401570 10.600600 15.735700 0.000005 -0.000001 88.797600 76.482500 -88.681500 8.984550 -0.406207 -0.000000 19.264200 -0.543909 0.325064 16.377300 -0.000001 -0.000001 2.609520 -3.068120 2.398440 6.456720 -0.000001 -0.000000 -6.475350 -1.971190 2.188050 12.994200 -0.242716 4.980390 -91.051400 4.876440 -77.817700 5.348090 -0.000007 -0.000001 -52.285100 30.348000 -33.200200 24.328600 0.000019 0.000005 12.147100 16.586200 -37.016400 22.291600 -0.000001 0.000005 12.801000 5.234230 1.846000 12.994500 -0.242716 -4.980390 89.371700 9.169520 -86.063400 -5.348130 -0.000001 -0.000004 -54.400800 33.712900 -28.065300 -24.328900 0.000322 -0.000009 1.582790 4.013440 -21.557000 -22.291500 -0.000108 -0.000004 16.088400 5.407510 -3.183150 -2.192480 -6.469440 -0.000000 -174.311000 -11.588100 -6.833900 39.081100 -0.000007 -0.000012 -0.212298 0.273453 37.824800 40.985400 -0.000006 -0.000013 -0.180151 4.173130 -70.115300 11.754300 -0.000000 0.000003 -0.000124 -0.001235 -16.624700 -2.192510 6.469440 -0.000001 176.749000 17.504700 174.134000 -39.081100 -0.002282 -0.040193 -0.084939 0.115300 37.422000 -40.985400 0.000008 0.000006 6.108130 9.596390 -71.492300 -11.754300 -0.000006 -0.000006 -0.002269 -0.032038 -17.875900
0.000000 0.000000 0.000000 0.000000 0.000000 -0.000000 -1.047260 89.644600 -5.204720 89.162900 -2.320520 10.653000 15.735700 0.000005 -0.000001 88.842400 76.433500 -88.705100 8.984550 -0.406207 -0.000000 19.362700 -0.522798 0.364585 16.377300 -0.000001 -0.000001 2.595270 -3.086050 2.398650 6.456720 -0.000001 -0.000000 -6.543400 -1.995670 2.260700 12.994200 -0.242716 4.980390 -91.069200 4.922920 -77.730000 5.348090 -0.000007 -0.000001 -51.522000 28.996300 -33.986100 24.328600 0.000019 0.000005 13.598400 17.365600 -39.022300 22.291600 -0.000001 0.000005 12.999500 5.225520 2.070910 12.994500 -0.242716 -4.980390 89.365900 9.227500 -86.051500 -5.348130 -0.000001 -0.000004 -54.254100 33.703700 -28.059900 -24.328900 0.000322 -0.000009 1.548010 3.909380 -21.635800 -22.291500 -0.000108 -0.000004 16.173600 5.407770 -3.191610 -2.192480 -6.469440 -0.000000 -174.302000 -11.546300 -6.812070 39.081100 -0.000007 -0.000012 -0.216404 0.278677 37.831200 40.985400 -0.000006 -0.000013 -0.165495 4.244480 -70.095600 11.754300 -0.000000 0.000003 -0.000126 -0.001250 -16.625300 -2.192510 6.469440 -0.000001 176.722000 17.570700 174.178000 -39.081100 -0.002282 -0.040193 -0.083938 0.113933 37.436200 -40.985400 0.000008 0.000006 6.131330 9.591570 -71.496900 -11.754300 -0.000006 -0.000006 -0.002243 -0.031716 -17.862800
0.000000 0.000000 0.000000 0.000000 0.000000 -0.000000 -1.055870 89.640400 -5.223040 89.184900 -2.241010 10.734100 15.735700 0.000005 -0.000001 88.882700 76.381800 -88.726500 8.984550 -0.406207 -0.000000 19.466400 -0.503908 0.399875 16.377300 -0.000001 -0.000001 2.598460 -3.105970 2.404680 6.456720 -0.000001 -0.000000 -6.650750 -2.051880 2.299260 12.994200 -0.242716 4.980390 -91.079500 4.959300 -77.703700 5.348090 -0.000007 -0.000001 -50.934100 27.426200 -34.681700 24.328600 0.000019 0.000005 15.477200 18.402100 -41.253700 22.291600 -0.000001 0.000005 13.235200 5.213990 2.365540 12.994500 -0.242716 -4.980390 89.359200 9.223580 -86.008200 -5.348130 -0.000001 -0.000004 -54.212000 33.668300 -28.082300 -24.328900 0.000322 -0.000009 1.557980 3.936470 -21.626400 -22.291500 -0.000108 -0.000004 16.123700 5.407780 -3.192110 -2.192480 -6.469440 -0.000000 -174.314000 -11.541300 -6.764010 39.081100 -0.000007 -0.000012 -0.210642 0.271160 37.841200 40.985400 -0.000006 -0.000013 -0.150412 4.282240 -70.075600 11.754300 -0.000000 0.000003 -0.000128 -0.001268 -16.625900 -2.192510 6.469440 -0.000001 176.668000 17.609400 174.253000 -39.081100 -0.002282 -0.040193 -0.086251 0.116888 37.452100 -40.985400 0.000008 0.000006 6.030500 9.575970 -71.480700 -11.754300 -0.000006 -0.000006 -0.002255 -0.031858 -17.868600
